<svg width="55" height="56" viewBox="0 0 55 56" fill="none" xmlns="http://www.w3.org/2000/svg">
<rect y="0.5" width="55" height="55" rx="6" fill="#FEF3C7"/>
<path fill-rule="evenodd" clip-rule="evenodd" d="M22.25 18.25C22.6642 18.25 23 18.5858 23 19V20.5H32V19C32 18.5858 32.3358 18.25 32.75 18.25C33.1642 18.25 33.5 18.5858 33.5 19V20.5H34.25C35.9069 20.5 37.25 21.8431 37.25 23.5V34.75C37.25 36.4069 35.9069 37.75 34.25 37.75H20.75C19.0931 37.75 17.75 36.4069 17.75 34.75V23.5C17.75 21.8431 19.0931 20.5 20.75 20.5H21.5V19C21.5 18.5858 21.8358 18.25 22.25 18.25ZM35.75 27.25C35.75 26.4216 35.0784 25.75 34.25 25.75H20.75C19.9216 25.75 19.25 26.4216 19.25 27.25V34.75C19.25 35.5784 19.9216 36.25 20.75 36.25H34.25C35.0784 36.25 35.75 35.5784 35.75 34.75V27.25Z" fill="#F59E0B"/>
</svg>
