<svg width="55" height="56" viewBox="0 0 55 56" fill="none" xmlns="http://www.w3.org/2000/svg">
<rect y="0.5" width="55" height="55" rx="6" fill="#CFFAFE"/>
<path d="M17 24.6691V33.25C17 34.9069 18.3431 36.25 20 36.25H35C36.6569 36.25 38 34.9069 38 33.25V24.6691L29.0723 30.1631C28.1081 30.7564 26.8919 30.7564 25.9277 30.1631L17 24.6691Z" fill="#0891B2"/>
<path d="M38 22.9078V22.75C38 21.0931 36.6569 19.75 35 19.75H20C18.3431 19.75 17 21.0931 17 22.75V22.9078L26.7139 28.8856C27.196 29.1823 27.804 29.1823 28.2861 28.8856L38 22.9078Z" fill="#0891B2"/>
</svg>
