<svg width="55" height="56" viewBox="0 0 55 56" fill="none" xmlns="http://www.w3.org/2000/svg">
<rect y="0.5" width="55" height="55" rx="6" fill="#D9D7F4"/>
<path fill-rule="evenodd" clip-rule="evenodd" d="M34.1854 35.0971C36.0721 33.3191 37.25 30.7971 37.25 28C37.25 22.6152 32.8848 18.25 27.5 18.25C22.1152 18.25 17.75 22.6152 17.75 28C17.75 30.7971 18.9279 33.3191 20.8146 35.0971C22.5601 36.7419 24.9123 37.75 27.5 37.75C30.0877 37.75 32.4399 36.7419 34.1854 35.0971ZM21.6451 33.8123C23.0196 32.0978 25.1316 31 27.5 31C29.8684 31 31.9804 32.0978 33.3549 33.8123C31.8603 35.3178 29.789 36.25 27.5 36.25C25.211 36.25 23.1397 35.3178 21.6451 33.8123ZM31.25 25C31.25 27.0711 29.5711 28.75 27.5 28.75C25.4289 28.75 23.75 27.0711 23.75 25C23.75 22.9289 25.4289 21.25 27.5 21.25C29.5711 21.25 31.25 22.9289 31.25 25Z" fill="#4338CA"/>
</svg>
