<svg width="55" height="56" viewBox="0 0 55 56" fill="none" xmlns="http://www.w3.org/2000/svg">
<rect y="0.5" width="55" height="55" rx="6" fill="#DCFCE7"/>
<path fill-rule="evenodd" clip-rule="evenodd" d="M21.125 17.5C20.0895 17.5 19.25 18.3395 19.25 19.375V36.625C19.25 37.6605 20.0895 38.5 21.125 38.5H33.875C34.9105 38.5 35.75 37.6605 35.75 36.625V28.75C35.75 26.6789 34.0711 25 32 25H30.125C29.0895 25 28.25 24.1605 28.25 23.125V21.25C28.25 19.1789 26.5711 17.5 24.5 17.5H21.125ZM23 31C23 30.5858 23.3358 30.25 23.75 30.25H31.25C31.6642 30.25 32 30.5858 32 31C32 31.4142 31.6642 31.75 31.25 31.75H23.75C23.3358 31.75 23 31.4142 23 31ZM23.75 33.25C23.3358 33.25 23 33.5858 23 34C23 34.4142 23.3358 34.75 23.75 34.75H27.5C27.9142 34.75 28.25 34.4142 28.25 34C28.25 33.5858 27.9142 33.25 27.5 33.25H23.75Z" fill="#16A34A"/>
<path d="M28.4712 17.8159C29.268 18.7365 29.75 19.9369 29.75 21.25V23.125C29.75 23.3321 29.9179 23.5 30.125 23.5H32C33.3131 23.5 34.5135 23.982 35.4341 24.7788C34.5462 21.3799 31.8701 18.7038 28.4712 17.8159Z" fill="#16A34A"/>
</svg>
