 <svg
            width="129"
            height="192"
            viewBox="0 0 129 192"
            fill="none"
            xmlns="http://www.w3.org/2000/svg"
          >
            <path
              d="M113.375 127.275C95.4164 132.189 91.1725 130.816 87.9739 135.63C87.6072 136.184 85.7271 139.008 86.1094 142.628C86.4058 145.514 88.0207 147.745 89.0271 148.721C95.1746 154.673 112.104 147.394 121.801 139.421C123.915 137.682 129.586 133.024 128.44 129.716C127.972 128.359 126.521 127.688 125.475 127.22C120.865 125.16 116.082 126.526 113.375 127.267V127.275Z"
              fill="white"
            />
            <path
              d="M57.9248 6.57031H61.7474V31.6518H57.9248V6.57031Z"
              fill="white"
            />
            <path
              d="M46.6377 29.0234H73.0298C74.9773 29.0234 76.556 30.6022 76.556 32.5497V41.9815C76.556 43.929 74.9773 45.5078 73.0298 45.5078H46.6377C44.6902 45.5078 43.1115 43.929 43.1115 41.9815V32.5497C43.1115 30.6022 44.6902 29.0234 46.6377 29.0234Z"
              fill="white"
            />
            <path
              d="M70.5869 36.9062H49.0863C21.9921 36.9062 -2.28882e-05 58.8984 -2.28882e-05 85.9926V100.324C-2.28882e-05 115.552 12.3652 127.909 27.5857 127.909H92.0797C107.308 127.909 119.665 115.544 119.665 100.324V85.9926C119.665 58.8984 97.6733 36.9062 70.5791 36.9062H70.5869Z"
              fill="white"
            />
            <path
              d="M18.8298 97.7139C20.3979 98.4863 22.1532 98.8919 23.9319 98.8919H95.7437C97.5302 98.8919 99.2855 98.4863 100.846 97.7139C104.692 95.8104 106.861 91.9721 106.322 88.0324L106.283 87.7437C104.442 74.4034 92.3579 64.1446 77.5509 63.38C71.2863 63.0524 64.7098 62.8885 57.8445 62.9275C52.4694 62.9587 47.2737 63.1148 42.273 63.3722C27.4035 64.1368 15.2334 74.3566 13.3845 87.7437C13.3689 87.8374 13.3611 87.9388 13.3455 88.0324C12.7994 91.9721 14.9759 95.8104 18.822 97.7139H18.8298Z"
              fill="url(#paint0_linear_1_7157)"
            />
            <path
              style="mix-blend-mode:screen"
              d="M78.7667 95.9536C71.287 95.9536 65.2235 89.8901 65.2235 82.4104C65.2235 74.9307 71.287 68.8672 78.7667 68.8672C86.2464 68.8672 92.3099 74.9307 92.3099 82.4104C92.3099 89.8901 86.2464 95.9536 78.7667 95.9536Z"
              fill="url(#paint1_radial_1_7157)"
            />
            <path
              d="M78.7691 92.1286C73.4006 92.1286 69.0486 87.7765 69.0486 82.408C69.0486 77.0395 73.4006 72.6875 78.7691 72.6875C84.1376 72.6875 88.4896 77.0395 88.4896 82.408C88.4896 87.7765 84.1376 92.1286 78.7691 92.1286Z"
              fill="#EEFDFF"
            />
            <path
              d="M78.7708 90.5705C74.264 90.5705 70.6105 86.917 70.6105 82.4102C70.6105 77.9035 74.264 74.25 78.7708 74.25C83.2776 74.25 86.931 77.9035 86.931 82.4102C86.931 86.917 83.2776 90.5705 78.7708 90.5705Z"
              fill="url(#paint2_linear_1_7157)"
            />
            <path
              d="M73.5451 80.3004C73.5451 81.9699 74.9026 83.3273 76.5721 83.3273C78.2416 83.3273 79.599 81.9699 79.599 80.3004C79.599 78.6309 78.2416 77.2734 76.5721 77.2734C74.9026 77.2734 73.5451 78.6309 73.5451 80.3004Z"
              fill="#EEFDFF"
            />
            <path
              d="M79.9796 89.8794C79.3118 89.8794 78.7704 89.338 78.7704 88.6701C78.7704 88.0023 79.3118 87.4609 79.9796 87.4609C80.6475 87.4609 81.1888 88.0023 81.1888 88.6701C81.1888 89.338 80.6475 89.8794 79.9796 89.8794Z"
              fill="#EEFDFF"
            />
            <path
              d="M82.9679 86.8585C82.9679 87.194 83.2409 87.4592 83.5686 87.4592C83.8963 87.4592 84.1693 87.1862 84.1693 86.8585C84.1693 86.5309 83.8963 86.2578 83.5686 86.2578C83.2409 86.2578 82.9679 86.5309 82.9679 86.8585Z"
              fill="#EEFDFF"
            />
            <path
              style="mix-blend-mode:screen"
              d="M42.1846 95.9535C34.7049 95.9535 28.6414 89.89 28.6414 82.4103C28.6414 74.9306 34.7049 68.8671 42.1846 68.8671C49.6643 68.8671 55.7278 74.9306 55.7278 82.4103C55.7278 89.89 49.6643 95.9535 42.1846 95.9535Z"
              fill="url(#paint3_radial_1_7157)"
            />
            <path
              d="M42.187 92.1285C36.8185 92.1285 32.4665 87.7765 32.4665 82.408C32.4665 77.0395 36.8185 72.6874 42.187 72.6874C47.5555 72.6874 51.9075 77.0395 51.9075 82.408C51.9075 87.7765 47.5555 92.1285 42.187 92.1285Z"
              fill="#EEFDFF"
            />
            <path
              d="M42.1887 90.5704C37.6819 90.5704 34.0284 86.917 34.0284 82.4102C34.0284 77.9034 37.6819 74.2499 42.1887 74.2499C46.6955 74.2499 50.3489 77.9034 50.3489 82.4102C50.3489 86.917 46.6955 90.5704 42.1887 90.5704Z"
              fill="url(#paint4_linear_1_7157)"
            />
            <path
              d="M36.963 80.3003C36.963 81.9698 38.3205 83.3272 39.99 83.3272C41.6595 83.3272 43.0169 81.9698 43.0169 80.3003C43.0169 78.6308 41.6595 77.2734 39.99 77.2734C38.3205 77.2734 36.963 78.6308 36.963 80.3003Z"
              fill="#EEFDFF"
            />
            <path
              d="M43.3975 89.8793C42.7297 89.8793 42.1883 89.3379 42.1883 88.6701C42.1883 88.0023 42.7297 87.4609 43.3975 87.4609C44.0654 87.4609 44.6068 88.0023 44.6068 88.6701C44.6068 89.3379 44.0654 89.8793 43.3975 89.8793Z"
              fill="#EEFDFF"
            />
            <path
              d="M46.3858 86.8585C46.3858 87.1939 46.6589 87.4592 46.9865 87.4592C47.3142 87.4592 47.5872 87.1861 47.5872 86.8585C47.5872 86.5308 47.3142 86.2578 46.9865 86.2578C46.6589 86.2578 46.3858 86.5308 46.3858 86.8585Z"
              fill="#EEFDFF"
            />
            <path
              d="M54.9411 4.89927C54.9411 7.60635 57.1333 9.79854 59.8404 9.79854C62.5474 9.79854 64.7396 7.60635 64.7396 4.89927C64.7396 2.19219 62.5474 0 59.8404 0C57.1333 0 54.9411 2.19219 54.9411 4.89927Z"
              fill="white"
            />
            <path
              d="M56.4431 2.99006C56.4431 3.81701 57.114 4.48013 57.9332 4.48013C58.7523 4.48013 59.4232 3.80921 59.4232 2.99006C59.4232 2.17092 58.7523 1.5 57.9332 1.5C57.114 1.5 56.4431 2.17092 56.4431 2.99006Z"
              fill="white"
            />
            <path
              d="M17.6798 52.6101C17.6174 54.8959 19.4819 57.6264 21.6195 57.8604C23.6244 58.0789 25.2237 56.0349 26.8698 53.9207C28.4925 51.8378 32.0499 46.4938 30.6379 44.9803C28.7733 42.9832 17.828 47.2115 17.6798 52.6023V52.6101Z"
              fill="#EEEEEE"
            />
            <path
              d="M35.9842 43.8936C35.045 43.8936 34.2835 43.1322 34.2835 42.1929C34.2835 41.2536 35.045 40.4922 35.9842 40.4922C36.9235 40.4922 37.6849 41.2536 37.6849 42.1929C37.6849 43.1322 36.9235 43.8936 35.9842 43.8936Z"
              fill="#EEEEEE"
            />
            <path
              d="M17.9215 84.3205C18.4676 84.7027 22.2746 76.9481 32.4945 70.2311C36.0831 67.8673 39.6327 66.1822 39.4221 65.6907C39.2115 65.1915 35.2171 66.1198 32.0186 67.6021C21.83 72.3297 17.274 83.868 17.9293 84.3205H17.9215Z"
              fill="white"
            />
            <path
              d="M45.2044 104.71C45.337 106.005 46.4136 107.004 47.7164 107.129L65.6518 108.861C66.9468 108.985 68.2029 108.213 68.5773 106.965C68.749 106.411 68.8738 105.841 68.9596 105.249C68.983 105.085 68.944 104.921 68.8426 104.788C68.7412 104.656 68.5929 104.578 68.4291 104.562L45.7973 102.378C45.6335 102.362 45.4774 102.417 45.3526 102.518C45.2278 102.627 45.1576 102.776 45.1498 102.939C45.1264 103.532 45.142 104.125 45.1966 104.702L45.2044 104.71Z"
              fill="#B3B3B3"
            />
            <path
              d="M45.2103 104.703C45.7798 110.266 50.2032 114.837 55.984 115.391C61.679 115.945 66.828 112.411 68.5131 107.176C68.0606 108.292 66.8826 108.978 65.6578 108.853L47.7146 107.129C46.4195 106.997 45.3429 106.006 45.2103 104.711V104.703Z"
              fill="#8A8A8A"
            />
            <path
              d="M16.9499 144.988C16.9499 145.152 16.9499 145.308 16.9499 145.464C17.0045 146.97 17.3556 148.101 17.5272 148.608C22.4655 163.688 25.4222 171.645 29.5725 178.081C30.2903 179.189 31.0392 180.258 31.8505 181.303C32.9115 182.7 34.0739 184.065 35.3611 185.469C38.2243 188.59 42.5618 190.002 43.9583 190.486C49.0682 192.288 53.5852 191.96 56.5809 191.991H57.1036C60.1149 191.96 64.6242 192.296 69.7263 190.486C71.1227 190.002 75.4681 188.59 78.3234 185.469C86.2028 176.896 89.2375 169.765 96.1573 148.608C96.3212 148.124 96.6488 147.071 96.7269 145.659C96.7503 145.253 96.7581 144.84 96.7269 144.434C96.5786 141.906 95.5488 139.426 93.7311 137.163C90.6106 133.278 85.7971 131.148 80.8198 131.133L56.8228 131.031L33.2626 130.938C28.1761 130.914 23.2456 133.052 20.0158 136.984C18.4556 138.887 17.457 140.947 17.0903 143.069C17.0435 143.373 16.9967 143.677 16.9655 143.982C16.9343 144.317 16.9187 144.653 16.9187 144.996L16.9499 144.988Z"
              fill="white"
            />
            <path
              d="M33.0086 166.381C33.3597 147.767 35.8795 144.084 32.1661 139.653C31.737 139.146 29.5604 136.548 25.9796 135.885C23.1243 135.355 20.5342 136.267 19.3094 136.97C11.8591 141.19 14.0747 159.484 18.9739 171.03C20.0427 173.55 22.9136 180.306 26.4087 180.142C27.8441 180.08 28.8973 178.871 29.6384 178.005C32.9228 174.167 32.954 169.189 33.0086 166.381Z"
              fill="white"
            />
            <path
              d="M29.5841 178.086C30.3018 179.194 31.0507 180.263 31.8621 181.308C32.1195 181.043 32.3457 180.777 32.5564 180.536C35.8408 176.697 35.872 171.72 35.9266 168.911C36.2776 150.297 38.7975 146.615 35.084 142.192C34.811 141.864 33.8124 140.678 32.1975 139.695C35.8642 144.111 33.3677 147.824 33.0167 166.384C32.9699 169.192 32.9231 174.17 29.6465 178.016C29.6231 178.039 29.5997 178.063 29.5919 178.086H29.5841Z"
              fill="#EEEEEE"
            />
            <path
              d="M19.074 150.882C19.1833 148.885 19.5577 147.41 20.3067 144.469C21.2896 140.623 22.5223 138.743 21.7187 138.002C21.196 137.518 20.174 137.846 19.94 137.916C16.4216 139.039 15.3294 145.639 15.4854 149.774C15.579 152.302 16.1953 155.133 17.1237 155.258C17.2719 155.282 17.6308 155.258 17.896 155.032C18.9336 154.119 18.996 152.411 19.0818 150.89L19.074 150.882Z"
              fill="white"
            />
            <path
              d="M16.6636 157.936C16.6636 158.342 16.9912 158.67 17.3969 158.67C17.8026 158.67 18.1302 158.342 18.1302 157.936C18.1302 157.531 17.8026 157.203 17.3969 157.203C16.9912 157.203 16.6636 157.531 16.6636 157.936Z"
              fill="white"
            />
            <defs>
              <linearGradient
                id="paint0_linear_1_7157"
                x1="60.0524"
                y1="98.7749"
                x2="59.3346"
                y2="66.5318"
                gradientUnits="userSpaceOnUse"
              >
                <stop stop-color="#030D14" />
                <stop offset="1" stop-color="#0B2F45" />
              </linearGradient>
              <radialGradient
                id="paint1_radial_1_7157"
                cx="0"
                cy="0"
                r="1"
                gradientUnits="userSpaceOnUse"
                gradientTransform="translate(78.7667 82.4104) rotate(180) scale(13.4028)"
              >
                <stop offset="0.13" stop-color="#3280FC" />
                <stop offset="1" />
              </radialGradient>
              <linearGradient
                id="paint2_linear_1_7157"
                x1="86.9388"
                y1="82.4102"
                x2="70.6105"
                y2="82.4102"
                gradientUnits="userSpaceOnUse"
              >
                <stop stop-color="#030D14" />
                <stop offset="1" stop-color="#0B2F45" />
              </linearGradient>
              <radialGradient
                id="paint3_radial_1_7157"
                cx="0"
                cy="0"
                r="1"
                gradientUnits="userSpaceOnUse"
                gradientTransform="translate(42.1846 0.277346) rotate(180) scale(13.4028)"
              >
                <stop offset="0.13" stop-color="#3280FC" />
                <stop offset="1" />
              </radialGradient>
              <linearGradient
                id="paint4_linear_1_7157"
                x1="50.3489"
                y1="82.4102"
                x2="34.0206"
                y2="82.4102"
                gradientUnits="userSpaceOnUse"
              >
                <stop stop-color="#030D14" />
                <stop offset="1" stop-color="#0B2F45" />
              </linearGradient>
            </defs>
          </svg>