<svg width="18" height="18" viewBox="0 0 18 18" fill="none" xmlns="http://www.w3.org/2000/svg">
<rect width="18" height="18" rx="9" fill="#FEE2E2"/>
<path fill-rule="evenodd" clip-rule="evenodd" d="M10.4921 11.1875C10.5522 11.4124 10.7828 11.5458 11.0072 11.4855L13.6883 10.7657C13.796 10.7367 13.8879 10.6661 13.9437 10.5693C13.9994 10.4725 14.0145 10.3575 13.9857 10.2495L13.2673 7.56294C13.2071 7.33812 12.9765 7.2047 12.7522 7.26494C12.5278 7.32518 12.3947 7.55627 12.4548 7.7811L12.9087 9.47866C11.6435 8.6975 10.5914 7.69706 9.77231 6.55516C9.70028 6.45474 9.58788 6.39109 9.46487 6.38108C9.34186 6.37106 9.22067 6.41568 9.1334 6.50313L7.36464 8.2755L4.71797 5.62344C4.55373 5.45885 4.28743 5.45885 4.12318 5.62344C3.95894 5.78802 3.95894 6.05486 4.12318 6.21944L7.06724 9.1695C7.23149 9.33408 7.49779 9.33408 7.66203 9.1695L9.38562 7.4424C10.2273 8.51721 11.2695 9.46118 12.4953 10.2134L10.7895 10.6714C10.5651 10.7316 10.4319 10.9627 10.4921 11.1875Z" fill="#EF4444"/>
</svg>
