<svg width="18" height="18" viewBox="0 0 18 18" fill="none" xmlns="http://www.w3.org/2000/svg">
<rect width="18" height="18" rx="9" fill="#D1FAE5"/>
<path fill-rule="evenodd" clip-rule="evenodd" d="M10.4921 5.81247C10.5522 5.58764 10.7828 5.45422 11.0072 5.51446L13.6883 6.23433C13.796 6.26326 13.8879 6.33389 13.9437 6.43069C13.9994 6.52749 14.0145 6.64252 13.9857 6.75048L13.2673 9.43706C13.2071 9.66188 12.9765 9.7953 12.7522 9.73506C12.5278 9.67482 12.3947 9.44373 12.4548 9.2189L12.9087 7.52134C11.6435 8.3025 10.5914 9.30294 9.77231 10.4448C9.70028 10.5453 9.58788 10.6089 9.46487 10.6189C9.34186 10.6289 9.22067 10.5843 9.1334 10.4969L7.36464 8.7245L4.71797 11.3766C4.55373 11.5411 4.28743 11.5411 4.12318 11.3766C3.95894 11.212 3.95894 10.9451 4.12318 10.7806L7.06724 7.8305C7.23149 7.66592 7.49779 7.66592 7.66203 7.8305L9.38562 9.5576C10.2273 8.48279 11.2695 7.53882 12.4953 6.78662L10.7895 6.32862C10.5651 6.26838 10.4319 6.03729 10.4921 5.81247Z" fill="#10B981"/>
</svg>
