<svg width="299" height="190" viewBox="0 0 299 190" fill="none" xmlns="http://www.w3.org/2000/svg">
<path d="M190.895 141.25C175.984 144.949 172.46 143.916 169.805 147.539C169.5 147.956 167.939 150.082 168.257 152.806C168.503 154.979 169.844 156.658 170.679 157.392C175.783 161.873 189.839 156.394 197.89 150.393C199.645 149.083 204.354 145.578 203.402 143.088C203.013 142.066 201.809 141.561 200.941 141.209C197.113 139.659 193.142 140.686 190.895 141.244V141.25Z" fill="#FF7E37"/>
<path d="M144.855 50.3984H148.029V69.2773H144.855V50.3984Z" fill="#FF7E37"/>
<path d="M135.485 67.2969H157.398C159.015 67.2969 160.326 68.4852 160.326 69.9511V77.0505C160.326 78.5164 159.015 79.7047 157.398 79.7047H135.485C133.869 79.7047 132.558 78.5164 132.558 77.0505V69.9511C132.558 68.4852 133.869 67.2969 135.485 67.2969Z" fill="#FF7E37"/>
<path d="M155.376 73.2266H137.525C115.029 73.2266 96.7703 89.7801 96.7703 110.174V120.961C96.7703 132.423 107.037 141.725 119.674 141.725H173.221C185.864 141.725 196.124 132.418 196.124 120.961V110.174C196.124 89.7801 177.865 73.2266 155.369 73.2266H155.376Z" fill="#FF7E37"/>
<path d="M112.399 119.001C113.701 119.582 115.158 119.887 116.635 119.887H176.258C177.741 119.887 179.198 119.582 180.494 119.001C183.687 117.568 185.488 114.679 185.041 111.713L185.008 111.496C183.48 101.455 173.447 93.7328 161.153 93.1573C155.952 92.9107 150.491 92.7874 144.792 92.8168C140.329 92.8402 136.015 92.9577 131.863 93.1515C119.518 93.7269 109.413 101.419 107.878 111.496C107.865 111.566 107.859 111.643 107.846 111.713C107.392 114.679 109.199 117.568 112.393 119.001H112.399Z" fill="url(#paint0_linear_1_3663)"/>
<path style="mix-blend-mode:screen" d="M162.16 117.677C155.95 117.677 150.916 113.113 150.916 107.483C150.916 101.853 155.95 97.2891 162.16 97.2891C168.371 97.2891 173.405 101.853 173.405 107.483C173.405 113.113 168.371 117.677 162.16 117.677Z" fill="url(#paint1_radial_1_3663)"/>
<path d="M162.161 114.797C157.704 114.797 154.091 111.522 154.091 107.481C154.091 103.44 157.704 100.164 162.161 100.164C166.618 100.164 170.232 103.44 170.232 107.481C170.232 111.522 166.618 114.797 162.161 114.797Z" fill="#EEFDFF"/>
<path d="M162.158 113.628C158.416 113.628 155.383 110.878 155.383 107.486C155.383 104.094 158.416 101.344 162.158 101.344C165.9 101.344 168.933 104.094 168.933 107.486C168.933 110.878 165.9 113.628 162.158 113.628Z" fill="url(#paint2_linear_1_3663)"/>
<path d="M157.827 105.896C157.827 107.152 158.954 108.174 160.341 108.174C161.727 108.174 162.854 107.152 162.854 105.896C162.854 104.639 161.727 103.617 160.341 103.617C158.954 103.617 157.827 104.639 157.827 105.896Z" fill="#EEFDFF"/>
<path d="M163.174 113.103C162.619 113.103 162.17 112.695 162.17 112.192C162.17 111.689 162.619 111.281 163.174 111.281C163.728 111.281 164.178 111.689 164.178 112.192C164.178 112.695 163.728 113.103 163.174 113.103Z" fill="#EEFDFF"/>
<path d="M165.648 110.827C165.648 111.08 165.875 111.28 166.147 111.28C166.419 111.28 166.646 111.074 166.646 110.827C166.646 110.581 166.419 110.375 166.147 110.375C165.875 110.375 165.648 110.581 165.648 110.827Z" fill="#EEFDFF"/>
<path style="mix-blend-mode:screen" d="M131.78 117.677C125.569 117.677 120.535 113.113 120.535 107.483C120.535 101.853 125.569 97.2891 131.78 97.2891C137.99 97.2891 143.024 101.853 143.024 107.483C143.024 113.113 137.99 117.677 131.78 117.677Z" fill="url(#paint3_radial_1_3663)"/>
<path d="M131.78 114.797C127.323 114.797 123.71 111.522 123.71 107.481C123.71 103.44 127.323 100.164 131.78 100.164C136.238 100.164 139.851 103.44 139.851 107.481C139.851 111.522 136.238 114.797 131.78 114.797Z" fill="#EEFDFF"/>
<path d="M131.777 113.628C128.035 113.628 125.002 110.878 125.002 107.486C125.002 104.094 128.035 101.344 131.777 101.344C135.519 101.344 138.552 104.094 138.552 107.486C138.552 110.878 135.519 113.628 131.777 113.628Z" fill="url(#paint4_linear_1_3663)"/>
<path d="M127.447 105.896C127.447 107.152 128.574 108.174 129.96 108.174C131.346 108.174 132.473 107.152 132.473 105.896C132.473 104.639 131.346 103.617 129.96 103.617C128.574 103.617 127.447 104.639 127.447 105.896Z" fill="#EEFDFF"/>
<path d="M132.793 113.103C132.239 113.103 131.789 112.695 131.789 112.192C131.789 111.689 132.239 111.281 132.793 111.281C133.348 111.281 133.797 111.689 133.797 112.192C133.797 112.695 133.348 113.103 132.793 113.103Z" fill="#EEFDFF"/>
<path d="M135.268 110.827C135.268 111.08 135.494 111.28 135.766 111.28C136.038 111.28 136.265 111.074 136.265 110.827C136.265 110.581 136.038 110.375 135.766 110.375C135.494 110.375 135.268 110.581 135.268 110.827Z" fill="#EEFDFF"/>
<path d="M142.379 49.1408C142.379 51.1785 144.199 52.8285 146.446 52.8285C148.694 52.8285 150.514 51.1785 150.514 49.1408C150.514 47.1032 148.694 45.4531 146.446 45.4531C144.199 45.4531 142.379 47.1032 142.379 49.1408Z" fill="#FF7E37"/>
<path d="M143.628 47.7075C143.628 48.33 144.185 48.8291 144.865 48.8291C145.545 48.8291 146.102 48.3241 146.102 47.7075C146.102 47.0909 145.545 46.5859 144.865 46.5859C144.185 46.5859 143.628 47.0909 143.628 47.7075Z" fill="white"/>
<path d="M111.435 85.0518C111.384 86.7724 112.932 88.8276 114.706 89.0038C116.371 89.1682 117.699 87.6297 119.066 86.0383C120.413 84.4705 123.366 80.4481 122.194 79.3089C120.646 77.8056 111.558 80.9883 111.435 85.046V85.0518Z" fill="white"/>
<path d="M126.641 78.4977C125.861 78.4977 125.229 77.9246 125.229 77.2176C125.229 76.5106 125.861 75.9375 126.641 75.9375C127.421 75.9375 128.053 76.5106 128.053 77.2176C128.053 77.9246 127.421 78.4977 126.641 78.4977Z" fill="white"/>
<path d="M111.648 108.922C112.101 109.21 115.262 103.373 123.747 98.3169C126.726 96.5376 129.674 95.2692 129.499 94.8993C129.324 94.5235 126.007 95.2223 123.352 96.338C114.893 99.8965 111.11 108.581 111.654 108.922H111.648Z" fill="white"/>
<path d="M134.294 124.266C134.404 125.24 135.298 125.992 136.379 126.086L151.271 127.389C152.346 127.483 153.389 126.902 153.699 125.963C153.842 125.546 153.946 125.117 154.017 124.671C154.036 124.547 154.004 124.424 153.92 124.324C153.835 124.224 153.712 124.166 153.576 124.154L134.786 122.51C134.65 122.498 134.521 122.539 134.417 122.615C134.313 122.698 134.255 122.809 134.248 122.933C134.229 123.379 134.242 123.825 134.287 124.26L134.294 124.266Z" fill="#EEFDFF"/>
<path d="M134.297 124.266C134.769 128.452 138.442 131.894 143.242 132.31C147.97 132.727 152.245 130.067 153.644 126.127C153.268 126.967 152.29 127.484 151.273 127.39L136.376 126.092C135.301 125.992 134.407 125.246 134.297 124.271V124.266Z" fill="#FFA574"/>
<path d="M110.832 154.584C110.832 154.707 110.832 154.824 110.832 154.942C110.878 156.075 111.169 156.927 111.312 157.308C115.412 168.659 117.867 174.649 121.313 179.493C121.908 180.327 122.53 181.132 123.204 181.918C124.085 182.97 125.05 183.997 126.119 185.054C128.496 187.403 132.097 188.466 133.257 188.83C137.499 190.186 141.249 189.94 143.737 189.963H144.171C146.671 189.94 150.415 190.192 154.651 188.83C155.81 188.466 159.418 187.403 161.789 185.054C168.33 178.601 170.85 173.234 176.595 157.308C176.731 156.944 177.003 156.152 177.068 155.089C177.088 154.783 177.094 154.472 177.068 154.167C176.945 152.264 176.09 150.397 174.581 148.694C171.99 145.77 167.994 144.167 163.861 144.155L143.937 144.078L124.376 144.008C120.153 143.99 116.06 145.599 113.378 148.559C112.083 149.992 111.254 151.542 110.949 153.139C110.91 153.368 110.871 153.597 110.845 153.826C110.82 154.079 110.807 154.331 110.807 154.59L110.832 154.584Z" fill="#FF7E37"/>
<path d="M124.165 170.691C124.457 156.68 126.549 153.908 123.466 150.573C123.11 150.191 121.303 148.236 118.329 147.737C115.959 147.337 113.808 148.024 112.791 148.553C106.606 151.73 108.445 165.5 112.513 174.191C113.4 176.087 115.784 181.172 118.686 181.049C119.878 181.002 120.752 180.092 121.367 179.44C124.094 176.551 124.12 172.805 124.165 170.691Z" fill="#FF7E37"/>
<path d="M121.333 179.498C121.929 180.332 122.551 181.137 123.224 181.923C123.438 181.724 123.626 181.524 123.801 181.342C126.528 178.453 126.554 174.707 126.599 172.593C126.89 158.582 128.983 155.81 125.899 152.481C125.673 152.234 124.844 151.341 123.503 150.602C126.547 153.925 124.474 156.72 124.183 170.69C124.144 172.804 124.105 176.55 121.385 179.445C121.365 179.463 121.346 179.481 121.34 179.498H121.333Z" fill="#FFAB7D"/>
<path d="M112.605 159.023C112.696 157.52 113.007 156.41 113.629 154.196C114.445 151.301 115.468 149.886 114.801 149.328C114.367 148.964 113.519 149.211 113.324 149.264C110.403 150.109 109.496 155.077 109.626 158.189C109.704 160.092 110.215 162.223 110.986 162.317C111.109 162.335 111.407 162.317 111.627 162.147C112.489 161.46 112.541 160.174 112.612 159.029L112.605 159.023Z" fill="white"/>
<path d="M110.6 164.334C110.6 164.639 110.872 164.886 111.209 164.886C111.546 164.886 111.818 164.639 111.818 164.334C111.818 164.028 111.546 163.781 111.209 163.781C110.872 163.781 110.6 164.028 110.6 164.334Z" fill="white"/>
<path d="M5.84829 73.6355H56.7998L70.8557 84.3603V73.6355H80.9052C83.5827 73.6355 85.7535 71.6675 85.7535 69.2401V42.8642C85.7535 40.4368 83.5827 38.4688 80.9052 38.4688H5.84829C3.17079 38.4688 1 40.4368 1 42.8642V69.2401C1 71.6675 3.17079 73.6355 5.84829 73.6355Z" stroke="#8A8A8A" stroke-width="1.5" stroke-linecap="round" stroke-linejoin="round"/>
<path d="M65.8589 57.5483C66.6611 55.7926 65.7414 53.7798 63.8048 53.0526C61.8682 52.3254 59.648 53.1591 58.8459 54.9148C58.0437 56.6705 58.9633 58.6833 60.8999 59.4105C62.8365 60.1378 65.0567 59.304 65.8589 57.5483Z" fill="#8A8A8A"/>
<path d="M53.2009 57.5483C54.0031 55.7926 53.0834 53.7798 51.1468 53.0526C49.2102 52.3254 46.99 53.1591 46.1879 54.9148C45.3857 56.6705 46.3053 58.6833 48.2419 59.4105C50.1785 60.1378 52.3987 59.304 53.2009 57.5483Z" fill="#8A8A8A"/>
<path d="M39.7246 58.6674C41.2068 57.3237 41.2068 55.1451 39.7246 53.8013C38.2424 52.4576 35.8393 52.4576 34.3571 53.8013C32.8748 55.1451 32.8748 57.3237 34.3571 58.6674C35.8393 60.0112 38.2424 60.0112 39.7246 58.6674Z" fill="#8A8A8A"/>
<path d="M25.2612 59.587C27.3014 59.1505 28.5648 57.2973 28.0833 55.4477C27.6018 53.5982 25.5577 52.4528 23.5175 52.8893C21.4774 53.3258 20.2139 55.179 20.6955 57.0286C21.177 58.8781 23.2211 60.0236 25.2612 59.587Z" fill="#8A8A8A"/>
<path d="M293.464 95.6696H243.838L230.148 106.115V95.6696H220.359C217.749 95.6696 215.635 93.7532 215.635 91.3877V65.696C215.635 63.3305 217.749 61.4141 220.359 61.4141H293.464C296.074 61.4141 298.188 63.3305 298.188 65.696V91.3877C298.188 93.7532 296.074 95.6696 293.464 95.6696Z" stroke="#8A8A8A" stroke-width="1.5" stroke-linecap="round" stroke-linejoin="round"/>
<path d="M238.43 82.0688C240.472 82.0688 242.126 80.5686 242.126 78.718C242.126 76.8674 240.472 75.3672 238.43 75.3672C236.389 75.3672 234.734 76.8674 234.734 78.718C234.734 80.5686 236.389 82.0688 238.43 82.0688Z" fill="#8A8A8A"/>
<path d="M250.753 82.0688C252.794 82.0688 254.449 80.5686 254.449 78.718C254.449 76.8674 252.794 75.3672 250.753 75.3672C248.712 75.3672 247.057 76.8674 247.057 78.718C247.057 80.5686 248.712 82.0688 250.753 82.0688Z" fill="#8A8A8A"/>
<path d="M263.075 82.0688C265.117 82.0688 266.772 80.5686 266.772 78.718C266.772 76.8674 265.117 75.3672 263.075 75.3672C261.034 75.3672 259.379 76.8674 259.379 78.718C259.379 80.5686 261.034 82.0688 263.075 82.0688Z" fill="#8A8A8A"/>
<path d="M275.398 82.0688C277.439 82.0688 279.094 80.5686 279.094 78.718C279.094 76.8674 277.439 75.3672 275.398 75.3672C273.357 75.3672 271.702 76.8674 271.702 78.718C271.702 80.5686 273.357 82.0688 275.398 82.0688Z" fill="#8A8A8A"/>
<path d="M125.76 19.2721H152.888L160.371 24.9831V19.2721H165.723C167.148 19.2721 168.306 18.2245 168.306 16.9309V2.88813C168.306 1.59613 167.15 0.546875 165.723 0.546875H125.76C124.334 0.546875 123.177 1.59453 123.177 2.88813V16.9325C123.177 18.2245 124.333 19.2737 125.76 19.2737V19.2721Z" stroke="#8A8A8A" stroke-width="0.749023" stroke-linecap="round" stroke-linejoin="round"/>
<path d="M156.315 11.7933C157.401 11.5609 158.074 10.5743 157.818 9.58969C157.561 8.60507 156.473 7.99526 155.387 8.22765C154.301 8.46005 153.628 9.44663 153.885 10.4313C154.141 11.4159 155.229 12.0257 156.315 11.7933Z" fill="#8A8A8A"/>
<path d="M150.545 11.3034C151.334 10.5879 151.334 9.42775 150.545 8.71222C149.755 7.99668 148.476 7.99668 147.686 8.71222C146.897 9.42775 146.897 10.5879 147.686 11.3034C148.476 12.0189 149.755 12.0189 150.545 11.3034Z" fill="#8A8A8A"/>
<path d="M142.699 11.815C143.801 11.6529 144.549 10.7119 144.37 9.71332C144.191 8.71471 143.153 8.03659 142.052 8.19869C140.95 8.36078 140.202 9.30172 140.381 10.3003C140.56 11.2989 141.598 11.977 142.699 11.815Z" fill="#8A8A8A"/>
<path d="M136.107 11.7933C137.193 11.5609 137.866 10.5743 137.61 9.58969C137.353 8.60507 136.265 7.99526 135.179 8.22765C134.093 8.46005 133.42 9.44663 133.676 10.4313C133.933 11.4159 135.021 12.0257 136.107 11.7933Z" fill="#8A8A8A"/>
<defs>
<linearGradient id="paint0_linear_1_3663" x1="146.625" y1="119.799" x2="146.135" y2="95.5275" gradientUnits="userSpaceOnUse">
<stop stop-color="#030D14"/>
<stop offset="1" stop-color="#0B2F45"/>
</linearGradient>
<radialGradient id="paint1_radial_1_3663" cx="0" cy="0" r="1" gradientUnits="userSpaceOnUse" gradientTransform="translate(162.16 107.483) rotate(180) scale(11.1278 10.0883)">
<stop offset="0.13" stop-color="#3280FC"/>
<stop offset="1"/>
</radialGradient>
<linearGradient id="paint2_linear_1_3663" x1="168.94" y1="107.486" x2="155.383" y2="107.486" gradientUnits="userSpaceOnUse">
<stop stop-color="#030D14"/>
<stop offset="1" stop-color="#0B2F45"/>
</linearGradient>
<radialGradient id="paint3_radial_1_3663" cx="0" cy="0" r="1" gradientUnits="userSpaceOnUse" gradientTransform="translate(131.78 45.6613) rotate(180) scale(11.1278 10.0883)">
<stop offset="0.13" stop-color="#3280FC"/>
<stop offset="1"/>
</radialGradient>
<linearGradient id="paint4_linear_1_3663" x1="138.552" y1="107.486" x2="124.996" y2="107.486" gradientUnits="userSpaceOnUse">
<stop stop-color="#030D14"/>
<stop offset="1" stop-color="#0B2F45"/>
</linearGradient>
</defs>
</svg>
