<svg width="429" height="86" viewBox="0 0 429 86" fill="none" xmlns="http://www.w3.org/2000/svg">
<path d="M103.99 67V45.56L106.038 51.256L86.2615 21.88H97.7815L110.198 41.208H108.15L120.566 21.88H131.702L111.99 51.256L113.974 45.56V67H103.99ZM130.077 44.408C130.077 39.7147 130.951 35.64 132.701 32.184C134.493 28.6853 137.053 25.976 140.381 24.056C143.709 22.136 147.655 21.176 152.221 21.176C156.786 21.176 160.733 22.136 164.061 24.056C167.389 25.976 169.949 28.6853 171.741 32.184C173.575 35.64 174.493 39.6933 174.493 44.344C174.493 49.08 173.575 53.1973 171.741 56.696C169.949 60.152 167.389 62.8613 164.061 64.824C160.733 66.744 156.786 67.704 152.221 67.704C147.655 67.704 143.709 66.744 140.381 64.824C137.095 62.8613 134.557 60.1307 132.765 56.632C130.973 53.1333 130.077 49.0587 130.077 44.408ZM140.509 44.408C140.509 49.0587 141.469 52.7067 143.389 55.352C145.351 57.9547 148.295 59.256 152.221 59.256C156.061 59.256 158.983 57.9547 160.989 55.352C162.994 52.7067 163.997 49.0587 163.997 44.408C163.997 39.7147 162.994 36.088 160.989 33.528C159.026 30.9253 156.103 29.624 152.221 29.624C148.295 29.624 145.351 30.9253 143.389 33.528C141.469 36.088 140.509 39.7147 140.509 44.408ZM201.688 67.704C195.074 67.704 190.146 66.0613 186.904 62.776C183.661 59.4907 182.04 54.6053 182.04 48.12V21.88H192.024V48.184C192.024 51.8107 192.792 54.5627 194.328 56.44C195.906 58.3173 198.36 59.256 201.688 59.256C204.93 59.256 207.341 58.3173 208.92 56.44C210.541 54.5627 211.352 51.8107 211.352 48.184V21.88H221.208V48.12C221.208 54.6053 219.565 59.4907 216.28 62.776C213.037 66.0613 208.173 67.704 201.688 67.704ZM230.046 67V21.88H250.526C255.603 21.88 259.528 23.096 262.302 25.528C265.075 27.9173 266.462 31.2667 266.462 35.576C266.462 38.392 265.822 40.824 264.542 42.872C263.304 44.8773 261.512 46.4347 259.166 47.544C256.862 48.6107 254.088 49.144 250.846 49.144L251.614 47.736H254.238C256.072 47.736 257.694 48.2267 259.102 49.208C260.552 50.1893 261.747 51.6187 262.686 53.496L269.406 67H258.398L251.422 52.472C250.91 51.2347 250.099 50.424 248.99 50.04C247.923 49.6133 246.686 49.4 245.278 49.4H240.03V67H230.046ZM240.03 42.232H248.798C251.4 42.232 253.384 41.6987 254.75 40.632C256.115 39.5653 256.798 37.9867 256.798 35.896C256.798 33.8053 256.115 32.248 254.75 31.224C253.384 30.1573 251.4 29.624 248.798 29.624H240.03V42.232ZM309.741 67.704C306.114 67.704 302.722 67.256 299.565 66.36C296.407 65.464 293.719 64.2267 291.501 62.648L294.445 54.84C295.895 55.8213 297.431 56.6533 299.053 57.336C300.674 58.0187 302.381 58.552 304.173 58.936C305.965 59.2773 307.842 59.448 309.805 59.448C312.877 59.448 315.053 58.9787 316.333 58.04C317.655 57.1013 318.317 55.9067 318.317 54.456C318.317 53.1333 317.869 52.1307 316.973 51.448C316.119 50.7227 314.541 50.104 312.237 49.592L304.685 48.056C300.546 47.2027 297.453 45.752 295.405 43.704C293.357 41.656 292.333 38.9253 292.333 35.512C292.333 32.6107 293.101 30.0933 294.637 27.96C296.173 25.8267 298.327 24.1627 301.101 22.968C303.917 21.7733 307.202 21.176 310.957 21.176C314.157 21.176 317.143 21.624 319.917 22.52C322.69 23.416 324.973 24.696 326.765 26.36L323.821 33.656C322.071 32.248 320.109 31.2027 317.933 30.52C315.799 29.7947 313.41 29.432 310.765 29.432C307.991 29.432 305.858 29.9227 304.365 30.904C302.914 31.8853 302.189 33.2293 302.189 34.936C302.189 36.216 302.637 37.2613 303.533 38.072C304.429 38.84 306.007 39.4587 308.269 39.928L315.693 41.4C319.917 42.2533 323.053 43.6827 325.101 45.688C327.149 47.6933 328.173 50.36 328.173 53.688C328.173 56.504 327.405 58.9573 325.869 61.048C324.375 63.1387 322.242 64.7813 319.469 65.976C316.738 67.128 313.495 67.704 309.741 67.704ZM335.546 67V21.88H345.53V67H335.546ZM365.103 67V30.008H350.767V21.88H389.423V30.008H375.087V67H365.103ZM394.858 67V21.88H426.218V29.624H404.394V40.184H424.682V47.992H404.394V59.256H426.218V67H394.858Z" fill="url(#paint0_linear_1_7320)"/>
<path opacity="0.4" d="M0 70.8565L62.917 70.8845L58.4672 63.7878H4.1526L0 70.8565Z" fill="url(#paint1_linear_1_7320)"/>
<path opacity="0.4" d="M60.1244 74.109L2.80399 74.109C1.25623 74.109 7.24792e-05 72.8529 7.24792e-05 71.3051V70.8845L62.9283 70.8845V71.3051C62.9283 72.8529 61.6721 74.109 60.1244 74.109Z" fill="url(#paint2_linear_1_7320)"/>
<path opacity="0.4" d="M4.40497 26.4818V60.7147C4.40497 61.7718 5.26297 62.6298 6.32004 62.6298H56.6054C57.6625 62.6298 58.5205 61.7718 58.5205 60.7147V59.324H12.2223C11.2297 59.324 10.4222 58.581 10.4222 57.6697V28.1305C10.4222 27.2164 11.2297 26.4762 12.2223 26.4762H58.5261C58.5233 25.4219 57.6653 24.5667 56.611 24.5667H6.32284C5.26577 24.5667 4.40777 25.4247 4.40777 26.4818H4.40497Z" fill="url(#paint3_linear_1_7320)"/>
<path d="M10.6577 24.5667H15.158C15.4048 25.2032 15.6487 25.8397 15.8927 26.4761H12.2223C11.2297 26.4761 10.4222 27.2192 10.4222 28.1305V57.6697C10.4222 58.5838 11.2297 59.324 12.2223 59.324H59.3757C60.3683 59.324 61.1758 58.581 61.1758 57.6697V28.1305C61.1758 27.2164 60.3683 26.4761 59.3757 26.4761H22.1286C21.8874 25.8481 21.6687 25.2088 21.4668 24.5667H60.9403C61.9974 24.5667 62.8554 25.4247 62.8554 26.4818V60.7147C62.8554 61.7718 61.9974 62.6298 60.9403 62.6298H10.6577C9.60067 62.6298 8.74268 61.7718 8.74268 60.7147V26.4818C8.74268 25.4247 9.60067 24.5667 10.6577 24.5667Z" fill="url(#paint4_linear_1_7320)"/>
<path d="M37.5557 60.4399H34.0395C33.8073 60.4399 33.619 60.6282 33.619 60.8605V60.9867C33.619 61.219 33.8073 61.4073 34.0395 61.4073H37.5557C37.7879 61.4073 37.9762 61.219 37.9762 60.9867V60.8605C37.9762 60.6282 37.7879 60.4399 37.5557 60.4399Z" fill="white"/>
<path d="M4.34607 70.9098H67.249L62.802 63.8131H8.48745L4.34607 70.9098Z" fill="url(#paint5_linear_1_7320)"/>
<path d="M64.4591 74.1091L7.13876 74.1091C5.591 74.1091 4.33485 72.8529 4.33485 71.3052V70.8846L67.2631 70.8846V71.3052C67.2631 72.8529 66.0069 74.1091 64.4591 74.1091Z" fill="url(#paint6_linear_1_7320)"/>
<path d="M48.9479 72.7127H22.65C21.7471 72.7127 21.0153 71.9809 21.0153 71.0781V70.8313H50.5854V71.0781C50.5854 71.9809 49.8536 72.7127 48.9507 72.7127H48.9479Z" fill="white"/>
<path d="M37.0985 51.3749C20.7685 34.9328 11.3053 17.857 15.9598 13.2333C19.5432 9.67515 28.712 14.01 34.317 23.7396C34.317 23.7396 24.2005 12.0949 18.5142 14.8736C12.2278 17.9467 33.7058 49.0084 37.0957 51.3749" fill="url(#paint7_linear_1_7320)"/>
<path d="M36.8602 49.9169C37.5443 50.4048 38.2369 50.8899 38.9407 51.3721C38.5145 51.1815 37.7939 50.6712 36.8602 49.9169Z" fill="url(#paint8_linear_1_7320)"/>
<path d="M23.9987 42.8987C23.9987 48.7926 28.7766 53.5704 34.6704 53.5704C40.5642 53.5704 45.3421 48.7926 45.3421 42.8987C45.3421 37.0049 40.5642 32.227 34.6704 32.227C28.7766 32.227 23.9987 37.0049 23.9987 42.8987Z" fill="url(#paint9_linear_1_7320)"/>
<path style="mix-blend-mode:multiply" opacity="0.3" d="M45.342 42.8987C45.342 48.7925 40.5641 53.5704 34.6703 53.5704C28.7765 53.5704 23.9986 48.7925 23.9986 42.8987C23.9986 42.6407 24.007 42.3828 24.0266 42.1276C24.422 47.6597 29.0372 52.0254 34.6703 52.0254C40.3034 52.0254 44.9186 47.6597 45.3139 42.1276C45.3336 42.3828 45.342 42.6407 45.342 42.8987Z" fill="url(#paint10_linear_1_7320)"/>
<path d="M27.1418 42.8987C27.1418 47.0569 30.5121 50.4244 34.6675 50.4244C38.8229 50.4244 42.1932 47.0541 42.1932 42.8987C42.1932 38.7433 38.8229 35.373 34.6675 35.373C30.5121 35.373 27.1418 38.7433 27.1418 42.8987Z" fill="white"/>
<path d="M29.7859 42.8987C29.7859 45.5961 31.9729 47.7831 34.6703 47.7831C37.3677 47.7831 39.5547 45.5961 39.5547 42.8987C39.5547 40.2013 37.3677 38.0143 34.6703 38.0143C31.9729 38.0143 29.7859 40.2013 29.7859 42.8987Z" fill="url(#paint11_linear_1_7320)"/>
<path opacity="0.3" d="M30.829 43.2744C30.829 45.3942 32.5478 47.1158 34.6703 47.1158C36.7929 47.1158 38.5117 45.397 38.5117 43.2744C38.5117 42.9015 38.4584 42.5398 38.3575 42.1977C37.892 43.7959 36.4172 44.9624 34.6703 44.9624C32.9235 44.9624 31.4486 43.7959 30.9832 42.1977C30.8823 42.5398 30.829 42.8987 30.829 43.2744Z" fill="white"/>
<path d="M31.4655 40.7565C31.4655 41.5528 32.1104 42.1977 32.9067 42.1977C33.703 42.1977 34.3479 41.5528 34.3479 40.7565C34.3479 39.9602 33.703 39.3153 32.9067 39.3153C32.1104 39.3153 31.4655 39.9602 31.4655 40.7565Z" fill="white"/>
<mask id="mask0_1_7320" style="mask-type:luminance" maskUnits="userSpaceOnUse" x="4" y="63" width="64" height="8">
<path d="M4.34607 70.9098H67.249L62.802 63.8131H8.48745L4.34607 70.9098Z" fill="white"/>
</mask>
<g mask="url(#mask0_1_7320)">
<path opacity="0.1" d="M42.2717 70.9098H44.9803L36.8854 62.7112H34.1768L42.2717 70.9098Z" fill="white"/>
<path opacity="0.1" d="M36.6695 70.9098H39.3809L31.286 62.7112H28.5774L36.6695 70.9098Z" fill="white"/>
<path opacity="0.1" d="M31.07 70.9098H33.7814L25.6865 62.7111H22.9779L31.07 70.9098Z" fill="white"/>
</g>
<path d="M74.9427 60.4007L77.2811 64.085C78.6467 66.2384 78.0074 69.09 75.8568 70.4555C73.7034 71.821 70.8518 71.1845 69.4863 69.0311L67.1478 65.3468C66.0066 63.5495 66.2646 61.2643 67.6329 59.7642L69.8171 63.2074C69.8312 63.2298 69.8452 63.2494 69.8592 63.2719C69.8704 63.2859 69.8788 63.2971 69.8872 63.3111C69.9349 63.37 69.9854 63.4233 70.0414 63.4738C70.0555 63.485 70.0667 63.4962 70.0807 63.5074C70.0891 63.513 70.0947 63.5186 70.1031 63.5242C70.1172 63.5354 70.134 63.5495 70.1508 63.5607C70.3891 63.7261 70.6835 63.799 70.9695 63.771C70.9864 63.771 71.0004 63.7682 71.0172 63.7654C71.0565 63.7598 71.0957 63.7513 71.135 63.7429C71.1714 63.7345 71.2079 63.7233 71.2415 63.7121C71.2611 63.7037 71.2808 63.6981 71.3004 63.6897C71.3172 63.684 71.334 63.6756 71.3509 63.6672C71.3677 63.6616 71.3873 63.6504 71.4041 63.642L71.5808 63.5298C71.5948 63.5186 71.6116 63.5074 71.6257 63.4934C71.6397 63.4822 71.6537 63.4681 71.6677 63.4569C71.6845 63.4429 71.6986 63.4289 71.7126 63.4149C71.7378 63.3868 71.763 63.3616 71.7855 63.3308C71.8107 63.2999 71.8359 63.2663 71.8584 63.2326C71.8668 63.2186 71.8752 63.2074 71.8836 63.1934C72.035 62.9466 72.0911 62.6494 72.0434 62.3634C72.0406 62.3438 72.0378 62.3242 72.0322 62.3045C72.0322 62.2961 72.0294 62.2877 72.0266 62.2765C72.021 62.2597 72.0182 62.2456 72.0126 62.2288C71.993 62.1587 71.9649 62.0886 71.9313 62.0213C71.9229 62.0073 71.9173 61.9933 71.9088 61.9793C71.8976 61.9568 71.8836 61.9344 71.8696 61.912L69.6853 58.4688C70.462 58.2276 71.2808 58.2052 72.0519 58.3762C73.2043 58.6342 74.2585 59.3324 74.9427 60.4091V60.4007Z" fill="url(#paint12_linear_1_7320)"/>
<path style="mix-blend-mode:multiply" opacity="0.4" d="M75.8542 70.4554C73.7036 71.8237 70.8492 71.1845 69.4837 69.0311L67.1453 65.3467C66.4723 64.2868 66.2873 63.0559 66.5284 61.9175C66.6406 62.4363 66.8452 62.9466 67.1453 63.4204L69.4837 67.1048C70.8492 69.2554 73.7036 69.8947 75.8542 68.5292C76.9477 67.8366 77.6487 66.7599 77.8983 65.585C78.2908 67.4216 77.5338 69.39 75.8542 70.4554Z" fill="url(#paint13_linear_1_7320)"/>
<path d="M69.1545 59.8705L69.2588 59.8046C69.4507 59.6832 69.7037 59.7421 69.8236 59.9317L70.8325 61.5264C70.9539 61.7183 70.895 61.9712 70.7054 62.0912L70.6012 62.1571C70.4092 62.2786 70.1563 62.2196 70.0364 62.0301L69.0275 60.4354C68.906 60.2434 68.965 59.9905 69.1545 59.8705Z" fill="url(#paint14_linear_1_7320)"/>
<g opacity="0.4">
<path d="M59.429 53.5704H54.9932V58.0062H59.429V53.5704Z" fill="url(#paint15_linear_1_7320)"/>
<path d="M54.9903 50.4805H51.9004V53.5732H54.9903V50.4805Z" fill="url(#paint16_linear_1_7320)"/>
<path d="M57.6905 47.7831H55.3885V50.0851H57.6905V47.7831Z" fill="url(#paint17_linear_1_7320)"/>
<path d="M53.0529 45.4811H50.7509V47.7831H53.0529V45.4811Z" fill="url(#paint18_linear_1_7320)"/>
</g>
<defs>
<linearGradient id="paint0_linear_1_7320" x1="88" y1="43" x2="429" y2="43" gradientUnits="userSpaceOnUse">
<stop stop-color="#891CF1"/>
<stop offset="1" stop-color="#1ECCFF"/>
</linearGradient>
<linearGradient id="paint1_linear_1_7320" x1="31.987" y1="80.5468" x2="30.5907" y2="55.0088" gradientUnits="userSpaceOnUse">
<stop stop-color="#1ECCFF"/>
<stop offset="0.54" stop-color="#6855FF"/>
<stop offset="1" stop-color="#891CF1"/>
</linearGradient>
<linearGradient id="paint2_linear_1_7320" x1="57.542" y1="72.7155" x2="-3.21322" y2="72.1771" gradientUnits="userSpaceOnUse">
<stop stop-color="#1ECCFF"/>
<stop offset="0.54" stop-color="#6855FF"/>
<stop offset="1" stop-color="#891CF1"/>
</linearGradient>
<linearGradient id="paint3_linear_1_7320" x1="-1.82252" y1="20.0748" x2="64.1676" y2="66.7095" gradientUnits="userSpaceOnUse">
<stop stop-color="#1ECCFF"/>
<stop offset="0.54" stop-color="#6855FF"/>
<stop offset="1" stop-color="#891CF1"/>
</linearGradient>
<linearGradient id="paint4_linear_1_7320" x1="2.51519" y1="20.0776" x2="68.4997" y2="66.7095" gradientUnits="userSpaceOnUse">
<stop stop-color="#1ECCFF"/>
<stop offset="0.54" stop-color="#6855FF"/>
<stop offset="1" stop-color="#891CF1"/>
</linearGradient>
<linearGradient id="paint5_linear_1_7320" x1="36.3275" y1="80.5749" x2="34.9311" y2="55.0368" gradientUnits="userSpaceOnUse">
<stop stop-color="#1ECCFF"/>
<stop offset="0.54" stop-color="#6855FF"/>
<stop offset="1" stop-color="#891CF1"/>
</linearGradient>
<linearGradient id="paint6_linear_1_7320" x1="61.8767" y1="72.7155" x2="1.12156" y2="72.1772" gradientUnits="userSpaceOnUse">
<stop stop-color="#1ECCFF"/>
<stop offset="0.54" stop-color="#6855FF"/>
<stop offset="1" stop-color="#891CF1"/>
</linearGradient>
<linearGradient id="paint7_linear_1_7320" x1="43.6569" y1="44.8586" x2="14.0924" y2="15.0895" gradientUnits="userSpaceOnUse">
<stop stop-color="#1ECCFF"/>
<stop offset="0.54" stop-color="#6855FF"/>
<stop offset="1" stop-color="#891CF1"/>
</linearGradient>
<linearGradient id="paint8_linear_1_7320" x1="38.9348" y1="51.3912" x2="4.34485" y2="27.6469" gradientUnits="userSpaceOnUse">
<stop stop-color="#1ECCFF"/>
<stop offset="0.54" stop-color="#6855FF"/>
<stop offset="1" stop-color="#891CF1"/>
</linearGradient>
<linearGradient id="paint9_linear_1_7320" x1="30.5683" y1="33.0458" x2="38.7725" y2="52.7545" gradientUnits="userSpaceOnUse">
<stop stop-color="#1ECCFF"/>
<stop offset="0.54" stop-color="#6855FF"/>
<stop offset="1" stop-color="#891CF1"/>
</linearGradient>
<linearGradient id="paint10_linear_1_7320" x1="36.7704" y1="38.5723" x2="30.8233" y2="52.8582" gradientUnits="userSpaceOnUse">
<stop stop-color="#1ECCFF"/>
<stop offset="0.54" stop-color="#6855FF"/>
<stop offset="1" stop-color="#891CF1"/>
</linearGradient>
<linearGradient id="paint11_linear_1_7320" x1="32.7917" y1="38.39" x2="36.5461" y2="47.4102" gradientUnits="userSpaceOnUse">
<stop stop-color="#1ECCFF"/>
<stop offset="0.54" stop-color="#6855FF"/>
<stop offset="1" stop-color="#891CF1"/>
</linearGradient>
<linearGradient id="paint12_linear_1_7320" x1="68.6682" y1="58.6587" x2="75.3836" y2="70.1345" gradientUnits="userSpaceOnUse">
<stop stop-color="#1ECCFF"/>
<stop offset="0.54" stop-color="#6855FF"/>
<stop offset="1" stop-color="#891CF1"/>
</linearGradient>
<linearGradient id="paint13_linear_1_7320" x1="72.3157" y1="61.8951" x2="71.996" y2="70.7807" gradientUnits="userSpaceOnUse">
<stop stop-color="#1ECCFF"/>
<stop offset="0.54" stop-color="#6855FF"/>
<stop offset="1" stop-color="#891CF1"/>
</linearGradient>
<linearGradient id="paint14_linear_1_7320" x1="68.5516" y1="58.6153" x2="75.2527" y2="70.0737" gradientUnits="userSpaceOnUse">
<stop stop-color="#1ECCFF"/>
<stop offset="0.54" stop-color="#6855FF"/>
<stop offset="1" stop-color="#891CF1"/>
</linearGradient>
<linearGradient id="paint15_linear_1_7320" x1="63.8087" y1="63.771" x2="48.7012" y2="45.4923" gradientUnits="userSpaceOnUse">
<stop stop-color="#1ECCFF"/>
<stop offset="0.54" stop-color="#6855FF"/>
<stop offset="1" stop-color="#891CF1"/>
</linearGradient>
<linearGradient id="paint16_linear_1_7320" x1="63.4189" y1="64.0935" x2="48.3142" y2="45.8148" gradientUnits="userSpaceOnUse">
<stop stop-color="#1ECCFF"/>
<stop offset="0.54" stop-color="#6855FF"/>
<stop offset="1" stop-color="#891CF1"/>
</linearGradient>
<linearGradient id="paint17_linear_1_7320" x1="63.9657" y1="57.9221" x2="52.7136" y2="44.3091" gradientUnits="userSpaceOnUse">
<stop stop-color="#1ECCFF"/>
<stop offset="0.54" stop-color="#6855FF"/>
<stop offset="1" stop-color="#891CF1"/>
</linearGradient>
<linearGradient id="paint18_linear_1_7320" x1="59.328" y1="55.6201" x2="48.0787" y2="42.0042" gradientUnits="userSpaceOnUse">
<stop stop-color="#1ECCFF"/>
<stop offset="0.54" stop-color="#6855FF"/>
<stop offset="1" stop-color="#891CF1"/>
</linearGradient>
</defs>
</svg>
